<svg width="151" height="118" viewBox="0 0 151 118" fill="none" xmlns="http://www.w3.org/2000/svg">
<path d="M90.3437 0.462712C86.5997 1.41271 83.6626 3.13371 80.0036 6.52171C77.3586 8.96971 77.3506 8.92771 80.7426 10.4157C85.7106 12.5947 89.4346 15.1637 92.4756 18.5087C94.4076 20.6337 93.7996 20.4467 90.0486 17.7627C87.0516 15.6177 82.0376 12.8477 78.7396 11.5157C76.8456 10.7507 72.1737 10.4297 70.7887 10.9707L69.7266 11.3847L72.1136 12.5857C76.6816 14.8837 78.8476 17.2337 79.8066 20.9307C80.5956 23.9727 79.4636 26.1957 72.4266 35.4257C62.8186 48.0257 59.3006 53.1187 55.2386 60.3057C48.8986 71.5217 44.4126 84.7927 44.4836 92.1207L44.4936 93.1217L45.0276 92.2147C51.7986 80.7337 52.1426 80.2197 57.6916 73.2607C62.2796 67.5067 73.3596 56.7987 74.0306 57.4697C74.1056 57.5447 73.2597 58.7377 72.1497 60.1217C67.3257 66.1367 62.8306 73.9257 61.0176 79.4077C59.8706 82.8757 58.9546 87.1647 59.2536 87.6707C59.3746 87.8767 61.8866 91.6757 64.8356 96.1127L70.1966 104.181H29.6066V108.532H122.002L124.122 109.749C136.959 117.119 138.034 117.672 139.655 117.725C142.299 117.812 141.657 117.259 134.237 113.065C130.356 110.871 127.174 108.954 127.165 108.804C127.156 108.654 132.37 108.532 138.752 108.532H150.356V104.181H108.618L106.008 102.266C102.97 100.036 93.2266 93.1507 91.3456 91.9037C90.1496 91.1107 89.9106 91.0777 88.0546 91.4507C86.9546 91.6717 85.2246 91.8547 84.2106 91.8577C82.5516 91.8627 82.4486 91.9077 83.1766 92.3107C84.0036 92.7687 85.4516 93.6807 94.3336 99.3437C97.1256 101.124 99.9806 102.938 100.68 103.375L101.949 104.169L74.6136 104.181L72.1446 100.343C70.7866 98.2317 68.5936 94.8457 67.2716 92.8187C64.3996 88.4167 64.2016 88.7857 69.1446 89.3317C106.121 93.4147 132.567 64.1987 122.662 30.2097C116.887 10.3937 102.694 -2.67129 90.3437 0.462712ZM101.494 9.61171C102.347 10.5987 102.293 11.6747 101.34 12.6897C99.3726 14.7837 96.0806 12.3947 97.4386 9.85871C98.2416 8.35771 100.302 8.23271 101.494 9.61171ZM48.0786 68.4327C47.7916 68.7057 43.8036 71.3387 39.2166 74.2837C34.6296 77.2287 28.1026 81.4567 24.7116 83.6787C21.3216 85.9007 17.7776 88.1987 16.8366 88.7877C11.2356 92.2897 0.215644 99.5687 0.00864374 99.9047C-0.168356 100.19 2.35764 100.247 9.00364 100.107L18.2446 99.9127L21.1156 98.1257C40.6556 85.9627 42.8496 84.4967 42.9206 83.5587C43.0236 82.1957 45.6166 75.0567 47.2626 71.6027C48.8766 68.2157 49.0616 67.4997 48.0786 68.4327Z" fill="#BBAC82"/>
</svg>
